<?xml version="1.0" standalone="no"?><!DOCTYPE svg PUBLIC "-//W3C//DTD SVG 1.1//EN"
        "http://www.w3.org/Graphics/SVG/1.1/DTD/svg11.dtd">
<svg t="1706753677219" class="icon" viewBox="0 0 1024 1024" version="1.1" xmlns="http://www.w3.org/2000/svg" p-id="1938"
     xmlns:xlink="http://www.w3.org/1999/xlink" width="200" height="200">
    <path d="M835.5 609.4c0 178.6-144.8 323.5-323.5 323.5S188.5 788 188.5 609.4 333.4 91.2 512 91.2s323.5 339.5 323.5 518.2z"
          fill="#FFFFFF" p-id="1939"></path>
    <path d="M512 959c-192.8 0-349.6-156.8-349.6-349.6 0-96.7 38.4-229.6 97.9-338.6C332.7 138.1 422.1 65 512 65c81.5 0 161.1 58.4 230.2 168.9 7.7 12.3 4 28.4-8.3 36.1-12.3 7.7-28.4 3.9-36.1-8.3-58.2-93.1-124.2-144.3-185.8-144.3-68.8 0-143.8 65-205.7 178.5-54.7 100.3-91.5 226.3-91.5 313.5 0 163.9 133.4 297.3 297.3 297.3s297.3-133.4 297.3-297.3c0-51.9-12.9-118.3-36.3-187.1-4.7-13.7 2.7-28.6 16.3-33.2 13.7-4.7 28.6 2.7 33.2 16.3 25.2 74.1 39.1 146.5 39.1 204C861.6 802.2 704.8 959 512 959z"
          p-id="1940"></path>
    <path d="M510.7 623m-202 0a202 202 0 1 0 404 0 202 202 0 1 0-404 0Z" fill="#FFCD43" p-id="1941"></path>
    <path d="M761 323.3m-26.2 0a26.2 26.2 0 1 0 52.4 0 26.2 26.2 0 1 0-52.4 0Z" p-id="1942"></path>
</svg>